<?xml version="1.0" standalone="no"?>
<!DOCTYPE svg PUBLIC "-//W3C//DTD SVG 1.1//EN" "http://www.w3.org/Graphics/SVG/1.1/DTD/svg11.dtd" >
<svg xmlns="http://www.w3.org/2000/svg">
<metadata>
Created by FontForge 20120731 at Mon Mar 13 17:46:18 2017
 By admin
</metadata>
<defs>
<font id="iconfont" horiz-adv-x="1024" >
  <font-face 
    font-family="iconfont"
    font-weight="500"
    font-stretch="normal"
    units-per-em="1024"
    panose-1="2 0 6 3 0 0 0 0 0 0"
    ascent="896"
    descent="-128"
    x-height="792"
    bbox="0 -212 1205.41 896"
    underline-thickness="0"
    underline-position="0"
    unicode-range="U+0078-EB68"
  />
<missing-glyph 
 />
    <glyph glyph-name=".notdef" 
 />
    <glyph glyph-name=".notdef" 
 />
    <glyph glyph-name=".null" horiz-adv-x="0" 
 />
    <glyph glyph-name="nonmarkingreturn" horiz-adv-x="341" 
 />
    <glyph glyph-name="x" unicode="x" horiz-adv-x="1001" 
d="M281 543q-27 -1 -53 -1h-83q-18 0 -36.5 -6t-32.5 -18.5t-23 -32t-9 -45.5v-76h912v41q0 16 -0.5 30t-0.5 18q0 13 -5 29t-17 29.5t-31.5 22.5t-49.5 9h-133v-97h-438v97zM955 310v-52q0 -23 0.5 -52t0.5 -58t-10.5 -47.5t-26 -30t-33 -16t-31.5 -4.5q-14 -1 -29.5 -0.5
t-29.5 0.5h-32l-45 128h-439l-44 -128h-29h-34q-20 0 -45 1q-25 0 -41 9.5t-25.5 23t-13.5 29.5t-4 30v167h911zM163 247q-12 0 -21 -8.5t-9 -21.5t9 -21.5t21 -8.5q13 0 22 8.5t9 21.5t-9 21.5t-22 8.5zM316 123q-8 -26 -14 -48q-5 -19 -10.5 -37t-7.5 -25t-3 -15t1 -14.5
t9.5 -10.5t21.5 -4h37h67h81h80h64h36q23 0 34 12t2 38q-5 13 -9.5 30.5t-9.5 34.5q-5 19 -11 39h-368zM336 498v228q0 11 2.5 23t10 21.5t20.5 15.5t34 6h188q31 0 51.5 -14.5t20.5 -52.5v-227h-327z" />
    <glyph glyph-name="mangouwuche" unicode="&#xe600;" 
d="M338 12q19 0 36 -7t29.5 -19.5t20 -29.5t7.5 -36t-7.5 -36t-20 -29.5t-29.5 -20t-36 -7.5q-20 0 -37 7.5t-29.5 20t-20 29.5t-7.5 36t7.5 36t20 29.5t29.5 19.5t37 7zM754 10q19 0 36.5 -7t30 -19.5t20 -29.5t7.5 -36t-7.5 -36t-20 -29.5t-30 -20t-36.5 -7.5t-36 7.5
t-29.5 20t-20 29.5t-7.5 36t7.5 36t20 29.5t29.5 19.5t36 7zM922 578q28 0 43.5 -7.5t22 -18.5t6 -23.5t-3.5 -21.5t-13 -37t-21.5 -61.5t-23 -66.5t-18.5 -52q-13 -40 -32.5 -55.5t-48.5 -15.5h-525l14 -90h505q48 0 48 -41q0 -20 -9.5 -34.5t-37.5 -14.5h-524
q-20 0 -33.5 9t-22.5 23.5t-14.5 31.5t-8.5 32q-1 6 -5.5 29t-11 57.5t-14.5 77t-16 85.5q-19 101 -43 225h-75q-15 0 -25 7.5t-16.5 18t-9 22.5t-2.5 22q0 20 13.5 33t36.5 13h101q20 0 32 -6t19 -15t10 -19t5 -17q2 -8 4 -22.5t4 -29.5q3 -18 6 -38h684v0zM847 610h-366
l132 132q23 23 50.5 23.5t50.5 -22.5z" />
    <glyph glyph-name="banji" unicode="&#xe614;" 
d="M1011 -16h-183q-19 130 -113 207q-12 23 -12 46q0 50 35.5 85.5t85.5 35.5t85.5 -35.5t35.5 -85.5q0 -32 -16 -59t-43 -42q50 -17 83 -58t42 -94v0zM317 237q0 -15 -8 -39q-50 -38 -83 -94t-42 -120h-167q6 52 39.5 92.5t81.5 55.5q-27 15 -43 42.5t-16 58.5
q0 50 35.5 85.5t85.5 35.5t83.5 -33.5t33.5 -83.5zM808 -16h-600q11 83 66.5 149.5t136.5 96.5q-45 26 -71.5 70.5t-26.5 96.5q0 82 56.5 138.5t138.5 56.5t138.5 -56.5t56.5 -138.5q0 -52 -26.5 -98t-70.5 -69q82 -30 136.5 -96t65.5 -150z" />
    <glyph glyph-name="dingdan" unicode="&#xe641;" 
d="M879 573h-94q-6 101 -83.5 170t-180.5 69q-105 0 -180.5 -69t-75.5 -170h-120l-102 -785h938zM520.5 744q75.5 0 128.5 -49.5t59 -121.5h-375q6 72 59 121.5t128.5 49.5zM307 326q-20 0 -35.5 12t-15.5 30q0 20 13 31.5t38 11.5q19 0 31 -12t12 -31t-12 -30.5t-31 -11.5z
M725.5 326q-19.5 0 -31 11.5t-11.5 30.5q0 20 12 35.5t30 15.5q20 0 36 -12t16 -30q0 -19 -16 -35t-35.5 -16z" />
    <glyph glyph-name="duihuan" unicode="&#xe655;" 
d="M324 491h376q55 2 93.5 39t38.5 89q0 53 -40.5 90.5t-97.5 37.5q-66 0 -103 -44l-79 -94l-79 94q-38 44 -103 44q-57 0 -97.5 -37.5t-40.5 -90.5q0 -52 38.5 -89t93.5 -39zM652 656q16 18 42 18q25 0 42 -16t17 -39t-17 -39t-42 -16h-119zM330 674q26 0 42 -18l78 -92
h-120q-25 0 -42 16t-17 39t17 39t42 16zM438 460h-252q-24 0 -41 -18.5t-17 -45.5v-160q0 -27 17 -45.5t41 -18.5h251q25 0 42 18.5t17 45.5v160q0 27 -17 45.5t-41 18.5zM838 460h-251q-25 0 -42 -18.5t-17 -45.5v-160q0 -27 17 -45.5t42 -18.5h251q24 0 41 18.5t17 45.5
v160q0 27 -17 45.5t-41 18.5zM438 140h-252q-24 0 -41 -18.5t-17 -45.5v-160q0 -27 17 -45.5t41 -18.5h251q25 0 42 18.5t17 45.5v160q0 27 -17 45.5t-41 18.5zM838 140h-251q-25 0 -42 -18.5t-17 -45.5v-160q0 -27 17 -45.5t42 -18.5h251q24 0 41 18.5t17 45.5v160
q0 27 -17 45.5t-41 18.5z" />
    <glyph glyph-name="shezhi" unicode="&#xe610;" 
d="M1 278v50q16 39 62 56q30 11 62 18q13 3 18 16q12 34 26 64q5 9 0 19q-34 72 -42 95q-12 33 8.5 58t53.5 33q8 3 16 3.5t16.5 -1.5t14.5 -4t16 -6.5t14 -6.5t15 -8q5 -3 13 -9t14.5 -9.5t12.5 -4t13 2.5t15.5 8.5t13.5 7.5t14.5 4.5t17 5.5t12 7.5t7 12.5t5 18t4.5 15
q1 4 6.5 18.5t8.5 21t10 18.5t14.5 17t20 9.5t28.5 4.5q36 -1 54 -18t28 -45q10 -27 18 -60q3 -12 14 -16t34 -13.5t35 -14.5q9 -3 19 1q10 5 32.5 16.5t35.5 16.5q64 27 101 -24q24 -31 17 -58q-8 -27 -24 -62q-2 -4 -12 -18.5t-10.5 -22.5t8 -23t10.5 -22q5 -24 19 -36.5
t41 -17.5q90 -19 90 -92q0 -12 -1.5 -21.5t-6 -17t-7 -12t-10 -9l-10 -6t-12 -5.5t-10.5 -5q-27 -12 -65 -24q-13 -4 -17 -16q-13 -34 -27 -65q-5 -10 1 -21q30 -53 39 -77q18 -47 -20 -80q-5 -4 -11 -11q-23 -25 -54 -16q-52 16 -77 30q-35 20 -63 3q-6 -4 -25.5 -9.5
t-25.5 -12.5q-7 -7 -11.5 -29.5t-5.5 -25.5q-21 -65 -65 -82h-49q-34 17 -51 58q-6 13 -14.5 37t-12.5 34q-4 9 -11 12q-11 5 -76 31q-61 -34 -65 -36q-65 -30 -111 14q-26 27 -20 52q15 59 28 81q25 42 2 77q-4 6 -9 23t-11 23q-7 6 -26 11t-22 6q-22 8 -35 14.5
t-28.5 19.5t-24.5 30zM798 301.5q0 118.5 -84 202.5t-202.5 84.5t-203 -83.5t-84.5 -203t84 -203t203 -84t203 84t84 202.5zM702 301.5q0 -79.5 -55.5 -135t-134.5 -56.5q-81 0 -136.5 56t-55.5 136q0 79 56 135t135.5 55.5t135 -56t55.5 -135zM511 206q40 0 67.5 27.5
t27.5 68t-27.5 68t-67.5 27.5t-67.5 -27.5t-27.5 -67.5t27.5 -68t67.5 -28z" />
    <glyph glyph-name="qiandao" unicode="&#xe674;" 
d="M879 781h-72v33q0 34 -24 58t-58 24h-1q-34 0 -58 -24t-24 -58v-33h-263v33q0 34 -24 58t-58 24h-1q-34 0 -58 -24t-24 -58v-33h-70q-60 0 -102 -42t-42 -101v-477q0 -59 42 -101t102 -42h735q60 0 102 42t42 101v477q0 59 -42 101t-102 42zM692 815q0 13 10 23t23.5 10
t23.5 -10t10 -23v-116q0 -14 -10 -23.5t-23.5 -9.5t-23.5 9.5t-10 23.5v116zM264 815q0 13 9.5 23t23.5 10t23.5 -10t9.5 -23v-116q0 -14 -9.5 -23.5t-23.5 -9.5t-23.5 9.5t-9.5 23.5v116zM958 190q0 -42 -30 -72.5t-72 -30.5h-688q-42 0 -72 30.5t-30 72.5v422q0 43 30 73
t72 30h46v-16q0 -34 24 -58t58 -24h1q34 0 58 24t24 58v16h263v-16q0 -34 24 -58t58 -24h1q34 0 58 24t24 58v16h49q42 0 72 -30t30 -73v-422zM609 592q-15 9 -34 12q-41 -72 -56 -121q15 -9 32 -11q13 28 29 59q68 -16 137 -16q4 18 4 30q-56 10 -126 17q6 13 14 30z
M438 451q7 16 10 29q-38 13 -54 18q-6 -11 -9 -29q22 -13 53 -18zM374 522q51 -11 102 -11q4 19 4 29q-55 9 -87 12q6 12 15 28q-15 9 -34 16q-55 -89 -70 -117q10 -12 30 -17q23 33 40 60zM412 317q91 -6 192 -6q4 16 4 34q-96 5 -193 7q-3 -17 -3 -35zM341 177
q0 -19 2 -35q175 2 342 7q1 8 1 19q0 8 -2 17q-177 -2 -343 -8zM618 501q-5 -14 -7 -30q41 -14 63 -14q6 13 8 30q-38 10 -64 14zM559 431q-9 16 -25 29q-125 -48 -224 -101q4 -15 23 -29q103 46 163 73q95 -46 179 -77q13 14 20 30q-75 36 -152 68q2 1 7.5 3.5t8.5 3.5z
M610 202q34 43 53 84q-16 7 -34 12q-28 -38 -51 -81q14 -11 32 -15zM509 211q17 8 29 20q-20 35 -41 60q-17 -10 -29 -19q17 -34 41 -61zM384 286q-15 -10 -27 -22q25 -41 55 -63q17 11 27 22q-25 34 -55 63z" />
    <glyph glyph-name="jiebei" unicode="&#xeb68;" horiz-adv-x="1025" 
d="M1024 290v362q0 94 -67 161.5t-162 67.5h-566q-95 0 -162 -67.5t-67 -161.5v-536q0 -94 67 -161.5t162 -67.5h566q70 0 127.5 39t83.5 102l-69 13q-43 27 -92 34t-95 1t-91.5 -13.5t-96.5 -5.5t-95 21q-29 12 -57 30t-62.5 43.5t-52.5 37.5q-14 9 -45.5 33t-48.5 35
q-4 2 -1.5 12t11 16t28.5 -1q10 -4 24.5 -13t30.5 -17t65.5 -23t125.5 -32q10 -2 116 24q133 32 120 50q-5 7 -29 11q-25 5 -108 1.5t-99 6.5l-39 35q-7 6 32 22q76 29 148 40q18 3 37.5 3t40 -3t39.5 -6.5t42 -10t40.5 -12t42 -15t39 -15t39.5 -16t36 -14.5h11h-7
q20 -1 38 -10zM596 483h-351q-13 0 -22 9t-9 22t9 21.5t22 8.5h351q13 0 22 -8.5t9 -21.5t-9 -22t-22 -9zM596 621h-351q-13 0 -22 9t-9 21.5t9 21.5t22 9h351q13 0 22 -9t9 -21.5t-9 -21.5t-22 -9zM983 300h1.5h1.5h-3v0z" />
    <glyph glyph-name="dingdan1" unicode="&#xe64f;" 
d="M853 178q-63 0 -107.5 -45t-44.5 -108t44.5 -108t107.5 -45t108 45t45 108t-45 108t-108 45v0zM954 65q-110 -108 -110 -109q-15 -14 -25 -5l-65 66q-10 10 0.5 21t20.5 1l54 -54l104 102q10 10 21 -1t0 -21v0zM348 792h234q18 0 31.5 15.5t13.5 37t-13.5 36.5t-33.5 15
h-232q-19 0 -32.5 -15t-13.5 -36.5t13.5 -37t32.5 -15.5v0zM836 225q40 0 76 -16v513q0 54 -29.5 86.5t-86.5 32.5h-106q2 -10 2 -18q0 -33 -20.5 -59.5t-48.5 -26.5h-323q-29 0 -49.5 26.5t-20.5 59.5q0 9 1 18h-106q-60 0 -83.5 -30.5t-23.5 -88.5v-696q0 -58 26.5 -87.5
t86.5 -29.5h557q-44 53 -44 123q0 80 56 136.5t136 56.5v0zM243 576h456q12 0 21.5 -10t10.5 -23q0 -13 -11 -24.5t-24 -11.5h-457q-12 0 -19.5 11t-7.5 25q0 13 9 23t22 10v0zM448 118h-209q-12 0 -19.5 10.5t-7.5 24.5q0 13 9 23.5t22 10.5h207q13 0 22.5 -10t10.5 -24
q0 -13 -11 -24t-24 -11v0zM237 310q-12 0 -22.5 12t-10.5 25t9 22t22 9h456q12 0 21.5 -8.5t10.5 -22.5q0 -13 -8.5 -25t-19.5 -12h-458v0zM237 310z" />
    <glyph glyph-name="youjiantou" unicode="&#xe6c3;" 
d="M260 257h242v252h-242v-252zM68 486v-201q0 -15 5.5 -22t11.5 -6h5h107v252h-110q-2 0 -5.5 -0.5t-8.5 -6.5t-5 -16zM946 407q-14 14 -96 76.5t-157.5 118.5l-75.5 56q-1 1 -3.5 3t-8.5 5.5t-10.5 3t-8 -7.5t-3.5 -21v-132v0v-252v0v-141q0 -18 8 -19.5t16 6.5l9 8
l328 254q1 0 5.5 6t6 15.5t-9.5 20.5z" />
    <glyph glyph-name="xiaoxi" unicode="&#xe61a;" 
d="M957 384q0 36 -20.5 64.5t-53.5 39.5v230q0 46 -32.5 78.5t-78.5 32.5q-45 0 -77 -30.5t-34 -74.5q-14 -19 -65.5 -54.5t-127.5 -68t-132 -32.5h-84q-76 0 -130.5 -54t-54.5 -131q0 -67 42 -118t106 -64v-152q0 -46 33 -78.5t79 -32.5t78.5 32.5t32.5 78.5v139
q68 -22 138.5 -71t83.5 -73q3 -44 35 -75t77 -31q46 0 78.5 32.5t32.5 78.5v230q33 11 53.5 39.5t20.5 64.5v0v0zM809 50q0 -15 -11 -26t-26.5 -11t-26 11t-10.5 26v668q0 15 10.5 26t26 11t26.5 -11t11 -26v-668zM809 50z" />
    <glyph glyph-name="xuesheng" unicode="&#xe607;" 
d="M366 171q0 -17 12.5 -29.5t29.5 -12.5t29 12.5t12 29.5t-12 29t-29 12t-29.5 -12t-12.5 -29v0zM366 171zM568 171q0 -17 12 -29.5t29 -12.5t29.5 12.5t12.5 29.5t-12.5 29t-29.5 12t-29 -12t-12 -29v0zM568 171zM922 643l-413 187l-414 -187l414 -188l365 167
q-1 -58 -7 -115t-11 -63h26h26q-5 7 -11.5 66.5t-7.5 118.5l33 14v0zM922 643zM509 415l-256 120q-98 -102 -98 -243q0 -96 47.5 -177.5t129 -129t177 -47.5t177 47.5t129 129t47.5 177.5q0 70 -26.5 133.5t-74.5 112.5l-252 -123v0zM807 294v-1.5v-0.5q0 -124 -87.5 -211.5
t-210.5 -87.5q-121 0 -207.5 84t-90.5 204q2 -3 3 -5q40 -52 125 -45.5t165 67.5q22 17 41 37q-1 -46 -11.5 -74t-36.5 -49q63 28 95 109q54 -49 113.5 -59.5t93.5 23.5q4 4 8 9v0zM807 294z" />
    <glyph glyph-name="shuju" unicode="&#xe60b;" horiz-adv-x="1152" 
d="M653 116l-60 53l-80 70v-363h145v236zM308 134v-258h145v401zM179 7l-76 67v-198h144v198zM1021 481l-98 -98v-507h145v564zM718 180v-304h145v448zM725 890l371 -32l51 -343l-126 112l-368 -365l-60 53l-111 98l-21 18l-282 -278l-171 151l282 278l78 77l78 78l192 -169
l212 210z" />
    <glyph glyph-name="dadou" unicode="&#xe630;" 
d="M354 547q4 -2 10.5 -5t27 -11.5t42 -16t52.5 -15.5t60 -12t63 -3.5t64 7.5q6 2 17 4.5t41.5 6t58 1t60.5 -17t56 -41t38 -77t13 -119.5q-1 -5 -3 -14t-10.5 -35t-20.5 -50.5t-35.5 -55.5t-53 -55.5t-74.5 -45.5t-98.5 -30t-127.5 -4.5t-158 26.5q-5 2 -13.5 5.5t-34.5 16
t-50.5 27.5t-56.5 40.5t-57.5 53t-49 67t-35.5 81.5t-12 96.5t17 112.5q1 3 3.5 8t12 17.5t21.5 22t32 17t43 6.5q-4 5 -11 13.5t-20.5 34t-18.5 50.5t3.5 59.5t36.5 64.5q11 13 36 22t57.5 11.5t68 -1t69 -20t60.5 -42t42 -70t13 -101.5q-5 0 -14 0.5t-37 5t-54.5 10.5
t-61.5 18.5t-64 29t-57 42.5t-45 57q-2 -1 -5 -4t-7 -16.5t-2.5 -32t14 -53t36.5 -77.5l1.5 0.5t5 1t8 1.5t11 1h14t16.5 -0.5t18.5 -2t21 -4t23.5 -6.5z" />
    <glyph glyph-name="paiming" unicode="&#xe853;" 
d="M748 776q-50 56 -125 56h-224q-75 0 -125 -56q-95 -3 -152.5 -43.5t-57.5 -124.5q0 -81 51 -142.5t128 -76.5q22 -97 83.5 -158t156.5 -69v-57h-121q-31 0 -52.5 -24.5t-21.5 -59.5t21.5 -59.5t52.5 -24.5h298q31 0 53 24.5t22 59.5t-22 59.5t-53 24.5h-121v57
q95 8 156.5 69t83.5 158q78 15 129 76.5t51 142.5q0 84 -57.5 124.5t-153.5 43.5zM234 449q-51 17 -82.5 60.5t-31.5 98.5q0 54 31.5 79t89.5 31q-9 -26 -9 -54v-168v0q0 -23 2 -47zM623 49q23 0 39.5 -8.5t16.5 -20t-16.5 -19.5t-39.5 -8h-224q-23 0 -39.5 8t-16.5 19.5
t16.5 20t39.5 8.5h84h56h84zM735 496v0v-1q-1 -80 -24 -141t-74 -99t-125.5 -38t-126 38t-74.5 100t-23 141v168q0 46 32.5 79t78.5 33h224q46 0 79 -33t33 -79v-168zM789 449q2 23 2 45v1v1v168q0 28 -9 54q57 -6 89 -31t32 -79q0 -55 -32 -98.5t-82 -60.5z" />
    <glyph glyph-name="qiandao-copy" unicode="&#xe603;" 
d="M512 834q-92 0 -175 -35.5t-143.5 -96t-96 -143.5t-35.5 -174.5t35.5 -175t96 -144t143.5 -96t175 -35.5t175 35.5t143.5 96t96 144t35.5 175t-35.5 174.5t-96 143.5t-143.5 96t-175 35.5zM811.5 85q-58.5 -59 -134.5 -91q-79 -33 -165 -33t-165 33q-76 32 -134.5 91
t-90.5 134q-33 79 -33 165t33 165q32 76 90.5 134.5t134.5 90.5q79 33 165 33t165 -33q76 -32 134.5 -90.5t90.5 -134.5q33 -79 33 -165t-33 -165q-32 -75 -90.5 -134zM361 531h156v24h-141q15 25 25 46l-25 4q-35 -72 -96 -127q11 -12 17 -20q27 23 64 73zM403 472
q13 -15 19 -21l20 15q-20 23 -43 46l-19 -15q8 -8 23 -25zM563 522q6 6 8 9h171v24h-156q12 21 23 46l-27 4q-19 -50 -59 -91q19 -12 23 -13q13 15 17 21zM625 510l-18 -15q27 -25 47 -46l19 17q-15 15 -41 37zM665 287q10 17 16 25l-25 11q-31 -63 -78 -135h-281v-25h432
v25h-124q20 28 60 99zM388 366h248v-23h-248v23zM538 479q4 6 6 8l-27 6q-79 -89 -237 -139q4 -4 15 -23q141 50 220 125q79 -83 216 -121q2 11 13 25q-121 25 -214 112q2 4 8 7zM343 304q18 -35 47 -102l25 10q-18 40 -47 102zM517 215l25 8q-17 56 -37 104l-25 -8
q23 -53 37 -104z" />
    <glyph glyph-name="renwujilu" unicode="&#xe61e;" 
d="M512 -128q-139 0 -257 68.5t-186.5 186.5t-68.5 257t68.5 257t186.5 186.5t257 68.5t257 -68.5t186.5 -186.5t68.5 -257t-68.5 -257t-186.5 -186.5t-257 -68.5zM400 662q0 12 -8.5 20.5t-20.5 8.5t-20.5 -8.5t-8.5 -20.5v-57q0 -12 8.5 -20.5t20.5 -8.5t20.5 8.5
t8.5 20.5v57zM543 662q0 12 -8.5 20.5t-20.5 8.5t-20 -8.5t-8 -20.5v-57q0 -12 8 -20.5t20 -8.5t20.5 8.5t8.5 20.5v57zM686 662q0 12 -8.5 20.5t-20 8.5t-20 -8.5t-8.5 -20.5v-57q0 -12 8.5 -20.5t20 -8.5t20 8.5t8.5 20.5v57zM791 605q0 12 -8.5 20.5t-19.5 8.5h-48v-29
q0 -24 -17 -41t-40.5 -17t-40.5 17t-17 41v29h-28v-29q0 -24 -17 -41t-40.5 -17t-40.5 17t-17 41v29h-29v-29q0 -24 -16.5 -41t-40.5 -17t-40.5 17t-16.5 41v29h-48q-12 0 -20.5 -8.5t-8.5 -20.5v-499q0 -12 8.5 -20.5t20.5 -8.5h497q11 0 19.5 8.5t8.5 20.5v499zM691 173
h-353q-10 0 -17 7t-7 17t7 17t17 7h353q10 0 17 -7t7 -17t-7 -17t-17 -7zM686 288h-344q-11 0 -19.5 8.5t-8.5 20.5t8.5 20.5t19.5 8.5h344q12 0 20.5 -8.5t8.5 -20.5t-8.5 -20.5t-20.5 -8.5zM686 413h-344q-11 0 -19.5 8.5t-8.5 20.5t8.5 20t19.5 8h344q12 0 20.5 -8
t8.5 -20t-8.5 -20.5t-20.5 -8.5z" />
    <glyph glyph-name="shenpitubiao19" unicode="&#xe663;" 
d="M698 726h-516q-9 0 -15.5 -6.5t-6.5 -15.5t6.5 -15.5t15.5 -6.5h516q10 0 16.5 6.5t6.5 15.5t-6.5 15.5t-16.5 6.5zM721 567q0 9 -6.5 15.5t-16.5 6.5h-516q-9 0 -15.5 -6.5t-6.5 -15.5t6.5 -15.5t15.5 -6.5h516q10 0 16.5 6.5t6.5 15.5zM182 452q-9 0 -15.5 -6.5
t-6.5 -15.5t6.5 -15.5t15.5 -6.5h344q9 0 15.5 6.5t6.5 15.5t-6.5 15.5t-15.5 6.5h-344zM444 316h-262q-9 0 -15.5 -6.5t-6.5 -16t6.5 -16t15.5 -6.5h262q10 0 16.5 6.5t6.5 16t-6.5 16t-16.5 6.5zM394 -38h-280q-10 0 -16.5 6.5t-6.5 15.5v817q0 9 6.5 15.5t16.5 6.5h661
q9 0 16 -6.5t7 -15.5v-312q0 -9 6.5 -15.5t15.5 -6.5t15.5 6.5t6.5 15.5v312q0 27 -19.5 47t-47.5 20h-661q-28 0 -47.5 -20t-19.5 -47v-817q0 -27 19.5 -47t47.5 -20h280q10 0 16.5 6.5t6.5 16t-6.5 16t-16.5 6.5zM743.5 415q-111.5 0 -190.5 -79t-79 -190.5t79 -190.5
t190.5 -79t190.5 79t79 190.5t-79 190.5t-190.5 79zM744 -80q-93 0 -159 66t-66 159t66 159t159 66t159 -66t66 -159t-66 -159t-159 -66zM600 142q22 5 40 10v66h-37v21h37v55h21v-55h38v-21h-38v-61q18 5 35 10q0 -12 2 -21q-16 -5 -37 -11v-85q0 -32 -25 -32q-13 -1 -30 0
q-1 12 -4 23q18 -2 26 -2q12 0 12 15v75q-15 -4 -37 -11zM799 146q0 -36 -5 -57q46 -26 89 -55l-16 -19q-35 27 -82 55q-24 -42 -94 -57q-4 9 -13 22q81 12 95 62q4 15 4 49h22zM707 178h162v-103h-20v84h-121v-85h-21v104zM719 283h140v-87h-21v8h-99v-7h-20v86zM838 264
h-99v-40h99v40z" />
    <glyph glyph-name="yuedu2" unicode="&#xe74c;" 
d="M313 716.5q0 74.5 56 127t135.5 52.5t136 -52.5t56.5 -127t-56.5 -127t-136 -52.5t-135.5 52.5t-56 127zM498 524q-36 0 -74 -10t-67 -23.5t-52.5 -27t-36.5 -23.5l-12 -9l256 -67l254 57q0 1 -12 11t-36 25.5t-55 30t-75.5 25.5t-89.5 11zM896 234v171l-370 -68v-465
l370 93v77q-43 35 -43 96t43 96zM896 138q0 33 19 56.5t45 23.5t45 -23.5t19 -56.5t-19 -56.5t-45 -23.5t-45 23.5t-19 56.5zM128 234q43 -35 43 -96t-43 -96v-90l356 -80v465l-356 80v-183zM0 138q0 33 19 56.5t45 23.5t45 -23.5t19 -56.5t-19 -56.5t-45 -23.5t-45 23.5
t-19 56.5z" />
    <glyph glyph-name="shouyeshouye" unicode="&#xe632;" 
d="M922 377l-413 386l-413 -385q-6 -5 -6.5 -13.5t5.5 -14.5t14 -6.5t14 5.5l386 359l385 -360q6 -5 14 -5q9 0 15 6q5 6 5 14t-6 14v0zM922 377zM796 369q-9 0 -14.5 -6t-5.5 -14v-306h-160v213h-214v-213h-160v306q0 8 -6 14t-14 6t-14 -6t-6 -14v-346h240v213h134v-213
h240v346q0 8 -6 14t-14 6v0zM796 369zM656 656h120v-107q0 -8 5.5 -14t14 -6t14.5 6t6 14v147h-160q-9 0 -14.5 -6t-5.5 -14.5t5.5 -14t14.5 -5.5v0zM656 656z" />
    <glyph glyph-name="tushu" unicode="&#xe66e;" 
d="M801 321h-737v-59q37 -12 61.5 -48.5t24.5 -84t-24.5 -84.5t-61.5 -48v-59h737q66 0 112.5 56t46.5 135.5t-46.5 135.5t-112.5 56zM960 771v59h-737q-66 0 -112.5 -56t-46.5 -135t46.5 -135.5t112.5 -56.5h737v59q-37 12 -61.5 48.5t-24.5 84.5q0 47 24.5 84t61.5 48z
" />
    <glyph glyph-name="shiliangzhinengduixiang-01" unicode="&#xe60c;" 
d="M667 541l-77 11q-14 2 -20 15l-34 69q-8 15 -24 15t-24 -15l-34 -69q-6 -13 -20 -15l-77 -11q-9 -1 -16 -9t-7 -17q0 -11 8 -19l56 -54q8 -8 8 -19v-5l-13 -76q-1 -3 -1 -5q0 -11 8 -18.5t19 -7.5q6 0 12 3l69 36q6 3 12.5 3t11.5 -3l69 -36q6 -3 12 -3q11 0 19 7.5
t8 18.5q0 2 -1 5l-13 76v5q0 11 8 19l56 54q8 8 8 19q0 9 -7 17t-16 9zM807 176q49 50 84 135t35 156q0 112 -55.5 207t-151 150.5t-207.5 55.5t-207.5 -55.5t-151 -150.5t-55.5 -207q0 -71 35 -156t84 -135l-114 -136q-5 -5 -5 -13t5.5 -13.5t13.5 -6.5l83 -9q14 -1 18 -14
l23 -81q1 -6 7 -10.5t12 -4.5q10 0 16 7l142 169q46 -11 94 -11t94 11l142 -169q6 -7 16 -7q6 0 12 4.5t7 10.5l23 81q4 13 18 15l83 8q8 1 13.5 7t5.5 13q0 8 -5 13zM512 118q-95 0 -175 46.5t-126.5 127t-47.5 174.5q1 95 47.5 175t126.5 127t175 47t175 -47t126.5 -127
t46.5 -174.5t-46.5 -175t-126.5 -127t-175 -46.5z" />
    <glyph glyph-name="huan" unicode="&#xe6ad;" 
d="M512 -128q139 0 257 68.5t186.5 186.5t68.5 257t-68.5 257t-186.5 186.5t-257 68.5t-257 -68.5t-186.5 -186.5t-68.5 -257t68.5 -257t186.5 -186.5t257 -68.5zM236 290v58q21 2 36 7q14 5 39 18v131h-75v58h75v60h55v-60h58v-58h-58v-97q34 16 60 23v-57q-26 -9 -60 -29
v-134q0 -44 -13 -61q-13 -20 -37 -29q-10 -4 -34 -4h-25v54h17q16 0 22 5q6 6 10.5 13t4.5 34v87q-30 -11 -41 -14q-9 -2 -34 -5zM438 113v50q76 11 108 37q21 18 31 49h-138v55h13v137q0 53 60 53h154l20 27q5 6 5 10q0 11 -17 11h-146q-19 -24 -38 -34q-17 -10 -47 -14v56
q23 4 34 15q15 16 27 58h57l-7 -26h111q53 0 74 -21q14 -13 14 -32q0 -15 -7 -27l-13 -23q17 -4 27 -14q14 -15 14 -34v-142h13v-55h-136q17 -37 41 -53q35 -23 95 -33v-50q-73 6 -117 29q-31 15 -56 50q-32 -38 -63 -53q-43 -20 -113 -26zM508 304h75v136h-33q-35 0 -39 -8
q-3 -6 -3 -15v-113zM643 304h77v109q0 17 -6 22q-5 5 -23 5h-48v-136z" />
    <glyph glyph-name="shuju1" unicode="&#xe605;" 
d="M285 37v503q0 15 -10 25t-25 10h-104q-14 0 -24.5 -10.5t-10.5 -24.5v-503h174zM507 37v719q0 15 -10 26t-25 11h-104q-15 0 -25 -11t-10 -26v-719h174zM729 37v318q0 15 -10.5 26t-24.5 11h-104q-15 0 -25 -11t-10 -26v-318h174zM951 37v503q0 15 -10.5 25t-24.5 10
h-105q-14 0 -24 -10.5t-10 -24.5v-503h174zM983 -10h-920v819q0 12 -9 21.5t-22 9.5t-22.5 -9.5t-9.5 -21.5v-881h983q13 0 22 9.5t9 22t-9 21.5t-22 9z" />
    <glyph glyph-name="renwu" unicode="&#xe657;" 
d="M971 -128zM514 709q-24 0 -43 19.5t-19 45.5t19 45.5t43 19.5q26 0 43.5 -19.5t17.5 -45.5q0 -30 -17.5 -47.5t-43.5 -17.5zM684 808q-13 0 -21 9.5t-8 21.5q0 23 -17 40t-41 17h-170q-24 0 -41 -17t-17 -40q0 -14 -8.5 -22.5t-20.5 -8.5h-21q-13 0 -21 -9t-8 -21v-92
q0 -14 8.5 -22t20.5 -8h383q12 0 20.5 9t8.5 21v92q0 13 -9 21.5t-20 8.5h-18zM810 415l-321 -397q-6 -9 -19 -7t-21 11l-217 187q-10 10 0 15l40 50q7 7 14 0l170 -146q12 -6 22 4l267 344q3 6 7.5 6.5t7.5 -2.5l50 -46q12 -6 0 -19zM810 739v-133q0 -14 -8.5 -22.5
t-20.5 -8.5l-538 -4q-13 0 -21 9.5t-8 21.5v134q0 13 -9 21.5t-20 8.5h-18q-34 3 -51.5 -16t-17.5 -53v-744q0 -28 22.5 -54.5t53.5 -26.5h676q27 0 51.5 26t24.5 55v748q0 28 -18.5 48.5t-46.5 20.5h-18q-14 0 -23.5 -8.5t-9.5 -22.5zM380 100z" />
    <glyph glyph-name="huaizhang" unicode="&#xe606;" 
d="M793 402l-14 -15q-8 -8 -19.5 -7.5t-18.5 8.5l-36 46q-7 10 -19.5 10t-19.5 -10l-25 -33q-6 -9 -17 -10t-19 6l-51 44q-8 7 -19 6t-17 -10l-36 -51q-6 -8 -15.5 -10t-17.5 3l-68 42q-15 10 -28 -1l-46 -38q-15 -11 -30 0q-2 1 -4 3t-8 7t-11.5 10t-13 10.5t-13.5 10
t-11 7t-8 1.5q-5 -1 -5 -14t3 -26l2 -13q-37 0 -37 -54t37 -54v-70q-37 0 -37 -54q0 -19 1.5 -30t8.5 -21t21 -10h6q1 -71 26 -91.5t110 -20.5h359q76 0 104 24.5t28 93.5v294q0 16 -15.5 22.5t-26.5 -5.5v0zM321 206q0 7 5 12t12 5h191q7 0 12 -5t5 -12v-6q0 -6 -5 -11
t-12 -5h-191q-7 0 -12 5t-5 11v6zM591 121q0 -7 -5.5 -12.5t-12.5 -5.5h-234q-7 0 -12.5 5.5t-5.5 12.5v4q0 7 5.5 12.5t12.5 5.5h234q7 0 12.5 -5.5t5.5 -12.5v-4zM618 264h-277q-9 0 -14.5 6t-5.5 14t5.5 13.5t14.5 5.5h277q8 0 13.5 -5.5t5.5 -13.5t-5.5 -14t-13.5 -6z
M733 739l-355 48q-84 11 -113 -11.5t-40 -103.5l3 -1l-3 1q-20 2 -30.5 -11t-13.5 -38q-8 -53 30 -59q-1 0 -2 -1.5t-2 -6t1 -9.5q2 -4 17 -18.5t30 -26.5l14 -12q14 -14 31 -4l49 30q16 10 30 -2l59 -50q8 -7 18.5 -6t17.5 8l41 44q7 9 18.5 8.5t19.5 -8.5l43 -49
q7 -9 18.5 -9t18.5 8l28 28q9 9 21.5 7.5t18.5 -12.5l29 -48q6 -10 17.5 -12.5t20.5 5.5l55 44q8 6 10 16l13 100q7 34 4 58.5t-8 40t-21 26t-36 16.5t-52 10zM553 601q-1 -7 -6.5 -11t-11.5 -3l-190 25q-7 1 -11 6.5t-3 11.5l1 7q0 6 5.5 10.5t12.5 3.5l190 -25
q6 -1 10.5 -6.5t3.5 -12.5zM633 655l-275 36q-8 1 -12.5 7.5t-3.5 14.5t7.5 13t14.5 4l274 -36q8 -1 13 -7.5t4 -14.5t-7.5 -13t-14.5 -4z" />
    <glyph glyph-name="jiaoshifengcai" unicode="&#xe608;" horiz-adv-x="1278" 
d="M639 618zM362 618v0q0 -115 81 -196t196 -81t196 81t81 196v0q0 115 -81 196t-196 81t-196 -81t-81 -196v0zM727 32l73 214q9 -1 25 -2.5t60.5 -10t84.5 -22.5t87.5 -43t80.5 -66.5t52.5 -97t13.5 -131.5h-1131q-1 7 0 19t8 48.5t20 70t42 75t69 73t105.5 56t146.5 31.5
l104 -221zM639 169zM557 169q0 -34 24 -58t58 -24t58.5 24t24.5 58t-24.5 58.5t-58.5 24.5t-58 -24.5t-24 -58.5zM616 127h46v-120h-46v120z" />
    <glyph glyph-name="shujia" unicode="&#xe60e;" 
d="M792 832h-448v-896h448q46 0 79 33t33 79v672q0 46 -33 79t-79 33zM792 473q0 -19 -2.5 -25.5t-9.5 -6.5q-8 -2 -22 11q-7 5 -19 14l-16 12q-14 12 -30 0q-6 -3 -35 -26q-12 -11 -21 -11q-7 0 -10 7t-3 25v273q0 30 21 30h126q21 0 21 -30v-273zM120 720v-672
q0 -46 33 -79t79 -33h56v896h-56q-46 0 -79 -33t-33 -79z" />
    <glyph glyph-name="4259" unicode="&#xe602;" horiz-adv-x="1025" 
d="M175 150q190 -4 310 -54h5t6 1q5 4 5 10v591q0 7 -7 10l-314 125q-6 2 -10.5 -1t-4.5 -9v-662q0 -11 10 -11zM1020 706.5q-4 3.5 -9 1.5l-104 -31q-8 -2 -8 -10v-535q1 -9 -8 -9h-17q-225 0 -342 -67l-20 -12l-20 12q-117 67 -342 67h-21q-4 0 -4 5v539q0 8 -8 10
l-104 31q-5 2 -9 -1.5t-4 -8.5v-648q0 -4 3.5 -7t7.5 -3q68 7 134 7q184 0 280 -51q64 -34 87 -34t87 34q96 51 280 51q66 0 134 -7q4 0 7.5 3t3.5 7v648q0 5 -4 8.5zM569 115q2 -1 5 -1h4q114 47 291 50q10 1 10 11v620q0 6 -4.5 9t-9.5 1l-295 -117q-6 -3 -6 -10v-554
q0 -6 5 -9z" />
  </font>
</defs>
</svg>
